<svg width="962" height="279" viewBox="0 0 962 279" fill="none" xmlns="http://www.w3.org/2000/svg">
<path d="M185.609 74.2439H107.752V0H259.853V114.322C259.853 127.134 252.297 138.961 240.8 144.546L185.609 170.827V74.2439Z" fill="#17CF81"/>
<path d="M77.8576 181.996H0V108.081H152.101V222.403C152.101 235.215 144.546 247.042 133.048 252.627L77.8576 278.908V181.996Z" fill="#17CF81"/>
<path d="M384.254 127.952L358.976 82.071H351.878V127.952H322.271V6.41046H371.961C381.542 6.41046 389.679 8.08411 396.374 11.4314C403.184 14.7787 408.262 19.3957 411.61 25.2823C414.957 31.0535 416.63 37.5173 416.63 44.6736C416.63 52.7533 414.322 59.9673 409.705 66.3156C405.203 72.6639 398.509 77.1655 389.621 79.8202L417.669 127.952H384.254ZM351.878 61.1215H370.23C375.655 61.1215 379.695 59.7941 382.35 57.1394C385.12 54.4846 386.505 50.7333 386.505 45.8855C386.505 41.2685 385.12 37.6327 382.35 34.9779C379.695 32.3232 375.655 30.9958 370.23 30.9958H351.878V61.1215Z" fill="#091D3E"/>
<path d="M526.285 78.0888C526.285 80.859 526.112 83.7446 525.766 86.7457H458.762C459.224 92.7477 461.128 97.3647 464.476 100.597C467.938 103.713 472.151 105.271 477.115 105.271C484.502 105.271 489.638 102.155 492.524 95.9219H524.034C522.419 102.27 519.475 107.984 515.205 113.062C511.049 118.141 505.797 122.123 499.449 125.009C493.101 127.894 486.002 129.337 478.153 129.337C468.689 129.337 460.263 127.317 452.875 123.277C445.488 119.238 439.717 113.466 435.562 105.964C431.407 98.4612 429.329 89.689 429.329 79.6471C429.329 69.6052 431.349 60.8329 435.389 53.3304C439.544 45.8278 445.315 40.0566 452.702 36.0168C460.089 31.9769 468.573 29.957 478.153 29.957C487.503 29.957 495.813 31.9192 503.085 35.8436C510.357 39.768 516.012 45.3661 520.052 52.6378C524.208 59.9096 526.285 68.3932 526.285 78.0888ZM495.986 70.2977C495.986 65.2191 494.255 61.1792 490.792 58.1782C487.33 55.1772 483.001 53.6766 477.807 53.6766C472.844 53.6766 468.631 55.1194 465.168 58.0051C461.821 60.8907 459.743 64.9882 458.935 70.2977H495.986Z" fill="#091D3E"/>
<path d="M536.017 79.6471C536.017 69.6052 538.037 60.8329 542.077 53.3304C546.232 45.8278 551.946 40.0566 559.218 36.0168C566.605 31.9769 575.031 29.957 584.496 29.957C596.615 29.957 606.715 33.1311 614.794 39.4795C622.989 45.8278 628.357 54.7732 630.896 66.3156H599.385C596.731 58.9284 591.594 55.2349 583.976 55.2349C578.551 55.2349 574.223 57.3702 570.991 61.6409C567.759 65.7962 566.143 71.7982 566.143 79.6471C566.143 87.4959 567.759 93.5557 570.991 97.8264C574.223 101.982 578.551 104.059 583.976 104.059C591.594 104.059 596.731 100.366 599.385 92.9786H630.896C628.357 104.29 622.989 113.178 614.794 119.642C606.599 126.105 596.5 129.337 584.496 129.337C575.031 129.337 566.605 127.317 559.218 123.277C551.946 119.238 546.232 113.466 542.077 105.964C538.037 98.4612 536.017 89.689 536.017 79.6471Z" fill="#091D3E"/>
<path d="M737.802 78.0888C737.802 80.859 737.629 83.7446 737.283 86.7457H670.279C670.741 92.7477 672.645 97.3647 675.993 100.597C679.455 103.713 683.668 105.271 688.632 105.271C696.019 105.271 701.155 102.155 704.041 95.9219H735.551C733.936 102.27 730.992 107.984 726.722 113.062C722.566 118.141 717.314 122.123 710.966 125.009C704.618 127.894 697.519 129.337 689.67 129.337C680.206 129.337 671.78 127.317 664.392 123.277C657.005 119.238 651.234 113.466 647.079 105.964C642.924 98.4612 640.846 89.689 640.846 79.6471C640.846 69.6052 642.866 60.8329 646.906 53.3304C651.061 45.8278 656.832 40.0566 664.219 36.0168C671.606 31.9769 680.09 29.957 689.67 29.957C699.02 29.957 707.33 31.9192 714.602 35.8436C721.874 39.768 727.529 45.3661 731.569 52.6378C735.725 59.9096 737.802 68.3932 737.802 78.0888ZM707.503 70.2977C707.503 65.2191 705.772 61.1792 702.309 58.1782C698.847 55.1772 694.518 53.6766 689.324 53.6766C684.361 53.6766 680.148 55.1194 676.685 58.0051C673.338 60.8907 671.26 64.9882 670.452 70.2977H707.503Z" fill="#091D3E"/>
<path d="M783.027 45.0198C785.797 40.5183 789.78 36.8824 794.974 34.1122C800.168 31.3421 806.112 29.957 812.807 29.957C820.771 29.957 827.985 31.9769 834.449 36.0168C840.912 40.0566 845.991 45.8278 849.685 53.3304C853.494 60.8329 855.398 69.5475 855.398 79.4739C855.398 89.4004 853.494 98.1727 849.685 105.791C845.991 113.293 840.912 119.122 834.449 123.277C827.985 127.317 820.771 129.337 812.807 129.337C805.997 129.337 800.052 128.01 794.974 125.355C789.895 122.585 785.913 118.949 783.027 114.447V127.952H753.421V6.41046H783.027V45.0198ZM825.273 79.4739C825.273 72.0868 823.195 66.3156 819.04 62.1603C815 57.8896 809.979 55.7543 803.977 55.7543C798.09 55.7543 793.069 57.8896 788.914 62.1603C784.874 66.431 782.854 72.2599 782.854 79.6471C782.854 87.0342 784.874 92.8631 788.914 97.1338C793.069 101.405 798.09 103.54 803.977 103.54C809.863 103.54 814.884 101.405 819.04 97.1338C823.195 92.7477 825.273 86.8611 825.273 79.4739Z" fill="#091D3E"/>
<path d="M962 78.0888C962 80.859 961.827 83.7446 961.481 86.7457H894.477C894.939 92.7477 896.843 97.3647 900.19 100.597C903.653 103.713 907.866 105.271 912.829 105.271C920.217 105.271 925.353 102.155 928.239 95.9219H959.749C958.133 102.27 955.19 107.984 950.919 113.062C946.764 118.141 941.512 122.123 935.164 125.009C928.816 127.894 921.717 129.337 913.868 129.337C904.403 129.337 895.977 127.317 888.59 123.277C881.203 119.238 875.432 113.466 871.277 105.964C867.121 98.4612 865.044 89.689 865.044 79.6471C865.044 69.6052 867.064 60.8329 871.104 53.3304C875.259 45.8278 881.03 40.0566 888.417 36.0168C895.804 31.9769 904.288 29.957 913.868 29.957C923.218 29.957 931.528 31.9192 938.8 35.8436C946.072 39.768 951.727 45.3661 955.767 52.6378C959.922 59.9096 962 68.3932 962 78.0888ZM931.701 70.2977C931.701 65.2191 929.97 61.1792 926.507 58.1782C923.044 55.1772 918.716 53.6766 913.522 53.6766C908.559 53.6766 904.346 55.1194 900.883 58.0051C897.536 60.8907 895.458 64.9882 894.65 70.2977H931.701Z" fill="#091D3E"/>
<path d="M459.915 149.57V271.112H430.308V198.222L403.126 271.112H379.233L351.878 198.049V271.112H322.271V149.57H357.245L391.353 233.715L425.114 149.57H459.915Z" fill="#091D3E"/>
<path d="M475.318 222.634C475.318 212.707 477.165 203.993 480.859 196.49C484.668 188.988 489.804 183.217 496.268 179.177C502.731 175.137 509.946 173.117 517.91 173.117C524.72 173.117 530.664 174.502 535.743 177.272C540.937 180.042 544.919 183.678 547.689 188.18V174.502H577.295V271.112H547.689V257.434C544.804 261.936 540.764 265.572 535.57 268.342C530.491 271.112 524.547 272.497 517.737 272.497C509.888 272.497 502.731 270.477 496.268 266.437C489.804 262.282 484.668 256.453 480.859 248.951C477.165 241.333 475.318 232.56 475.318 222.634ZM547.689 222.807C547.689 215.42 545.612 209.591 541.456 205.32C537.416 201.05 532.453 198.914 526.567 198.914C520.68 198.914 515.659 201.05 511.504 205.32C507.464 209.476 505.444 215.247 505.444 222.634C505.444 230.021 507.464 235.908 511.504 240.294C515.659 244.564 520.68 246.7 526.567 246.7C532.453 246.7 537.416 244.564 541.456 240.294C545.612 236.023 547.689 230.194 547.689 222.807Z" fill="#091D3E"/>
<path d="M613.604 164.46C608.41 164.46 604.139 162.96 600.792 159.959C597.56 156.842 595.944 153.033 595.944 148.532C595.944 143.915 597.56 140.106 600.792 137.105C604.139 133.988 608.41 132.43 613.604 132.43C618.683 132.43 622.838 133.988 626.07 137.105C629.417 140.106 631.091 143.915 631.091 148.532C631.091 153.033 629.417 156.842 626.07 159.959C622.838 162.96 618.683 164.46 613.604 164.46ZM628.321 174.502V271.112H598.714V174.502H628.321Z" fill="#091D3E"/>
<path d="M689.078 272.497C680.652 272.497 673.149 271.054 666.57 268.169C659.991 265.283 654.797 261.359 650.988 256.395C647.179 251.317 645.044 245.661 644.582 239.428H673.842C674.188 242.775 675.746 245.488 678.517 247.565C681.287 249.643 684.692 250.682 688.732 250.682C692.425 250.682 695.253 249.989 697.215 248.604C699.293 247.104 700.332 245.199 700.332 242.891C700.332 240.121 698.889 238.101 696.003 236.831C693.118 235.446 688.443 233.945 681.979 232.33C675.054 230.714 669.283 229.04 664.666 227.309C660.049 225.462 656.067 222.634 652.719 218.825C649.372 214.9 647.698 209.649 647.698 203.069C647.698 197.529 649.199 192.508 652.2 188.007C655.316 183.39 659.818 179.754 665.705 177.099C671.707 174.444 678.805 173.117 687 173.117C699.12 173.117 708.642 176.118 715.568 182.12C722.609 188.122 726.648 196.086 727.687 206.013H700.332C699.87 202.666 698.37 200.011 695.83 198.049C693.406 196.086 690.174 195.105 686.135 195.105C682.672 195.105 680.017 195.798 678.17 197.183C676.324 198.453 675.4 200.242 675.4 202.55C675.4 205.32 676.843 207.398 679.729 208.783C682.73 210.168 687.347 211.553 693.579 212.938C700.736 214.785 706.565 216.632 711.066 218.479C715.568 220.21 719.492 223.096 722.839 227.135C726.302 231.06 728.091 236.369 728.207 243.064C728.207 248.72 726.591 253.798 723.359 258.3C720.242 262.686 715.683 266.149 709.681 268.688C703.794 271.227 696.927 272.497 689.078 272.497Z" fill="#091D3E"/>
</svg>
